<svg width="524" height="86" viewBox="0 0 524 86" fill="none" xmlns="http://www.w3.org/2000/svg">
<g clip-path="url(#clip0_2050_484)">
<path d="M257.51 76.1399C255.791 76.1399 254.143 75.4572 252.928 74.242C251.712 73.0268 251.03 71.3785 251.03 69.6599V32.6599C251.032 30.9431 251.716 29.2974 252.931 28.0844C254.146 26.8713 255.793 26.1899 257.51 26.1899C259.227 26.1899 260.873 26.8713 262.088 28.0844C263.303 29.2974 263.987 30.9431 263.99 32.6599V42.9999L263.94 43.0599C264.299 40.6649 264.923 38.3172 265.8 36.0599C266.553 34.1146 267.643 32.3171 269.02 30.7499C270.315 29.3053 271.908 28.1589 273.69 27.3899C275.662 26.5693 277.784 26.1675 279.92 26.2099C280.671 26.2099 281.392 26.5078 281.924 27.0382C282.457 27.5687 282.757 28.2885 282.76 29.0399V33.4099C282.76 34.736 282.233 36.0078 281.295 36.9455C280.358 37.8832 279.086 38.4099 277.76 38.4099C275.521 38.3575 273.287 38.6372 271.13 39.2399C269.526 39.653 268.07 40.5056 266.925 41.7018C265.78 42.8979 264.992 44.39 264.65 46.0099C264.179 48.0117 263.958 50.0639 263.99 52.1199V69.6899C263.982 71.4033 263.296 73.0439 262.081 74.2526C260.867 75.4614 259.223 76.14 257.51 76.1399Z" fill="#D24322"/>
<path d="M181.82 60.0998V60.3098L181.88 60.0298L181.82 60.0998Z" fill="#D24322"/>
<path d="M119.06 76.1399C117.341 76.1399 115.693 75.4572 114.478 74.242C113.263 73.0268 112.58 71.3785 112.58 69.6599V32.6599C112.583 30.9431 113.267 29.2974 114.482 28.0844C115.697 26.8713 117.343 26.1899 119.06 26.1899C120.776 26.1899 122.422 26.8716 123.635 28.085C124.848 29.2983 125.53 30.944 125.53 32.6599V42.9999V43.0599C125.88 40.663 126.504 38.3142 127.39 36.0599C128.143 34.1146 129.233 32.3171 130.61 30.7499C131.903 29.3031 133.497 28.1564 135.28 27.3899C137.252 26.5684 139.374 26.1666 141.51 26.2099C142.247 26.2203 142.95 26.5175 143.471 27.0385C143.992 27.5595 144.29 28.2632 144.3 28.9999V33.3699C144.3 34.696 143.773 35.9678 142.836 36.9055C141.898 37.8432 140.626 38.3699 139.3 38.3699C137.061 38.3167 134.827 38.5964 132.67 39.1999C131.067 39.6156 129.611 40.4689 128.465 41.6644C127.319 42.8599 126.528 44.3507 126.18 45.9699C125.71 47.9717 125.488 50.0239 125.52 52.0799V69.6499C125.523 71.3668 124.844 73.0146 123.633 74.2314C122.422 75.4482 120.777 76.1346 119.06 76.1399Z" fill="#D24322"/>
<path d="M239.68 58.65H237.4C236.467 58.653 235.557 58.9389 234.79 59.47C234.235 59.8387 233.759 60.3147 233.39 60.87C233.358 60.9023 233.331 60.9394 233.31 60.98L233.04 61.36L232.78 61.73C232.14 62.5905 231.367 63.3434 230.49 63.96C229.616 64.565 228.645 65.018 227.62 65.3C224.786 66.0304 221.794 65.8484 219.07 64.78C217.612 64.1621 216.316 63.2178 215.28 62.02C214.191 60.7432 213.378 59.2556 212.89 57.65C212.559 56.581 212.331 55.4826 212.21 54.37H238C239.18 54.3685 240.312 53.9014 241.15 53.07L245.15 49.07C245.646 48.5779 246.018 47.9749 246.236 47.3107C246.453 46.6466 246.509 45.9403 246.4 45.25C246.139 43.6469 245.734 42.0706 245.19 40.54C244.171 37.6136 242.561 34.9279 240.46 32.65C238.395 30.4539 235.881 28.7282 233.09 27.59C230.042 26.3693 226.783 25.7643 223.5 25.81C220.169 25.7646 216.862 26.3797 213.77 27.62C210.926 28.7736 208.359 30.5189 206.24 32.74C204.099 35.0206 202.448 37.7161 201.39 40.66C199.083 47.3021 199.083 54.5279 201.39 61.17C202.464 64.1436 204.135 66.8661 206.3 69.17C208.44 71.4011 211.031 73.1501 213.9 74.3C217.028 75.5501 220.372 76.1687 223.74 76.12C226.486 76.1424 229.219 75.7376 231.84 74.92C234.255 74.164 236.522 72.9968 238.54 71.47C240.515 69.9466 242.207 68.0884 243.54 65.98V65.91C243.991 65.1954 244.242 64.3727 244.267 63.528C244.292 62.6832 244.089 61.8472 243.681 61.1075C243.272 60.3677 242.672 59.7513 241.944 59.3225C241.215 58.8938 240.385 58.6684 239.54 58.67L239.68 58.65ZM212.84 44.14C213.285 42.5285 214.054 41.0246 215.1 39.72C216.072 38.5273 217.313 37.5815 218.72 36.96C220.252 36.2889 221.908 35.9482 223.58 35.96C225.247 35.9393 226.898 36.2805 228.42 36.96C229.806 37.5988 231.007 38.5795 231.91 39.81C232.92 41.2082 233.644 42.7917 234.04 44.47C234.19 45.06 234.31 45.7 234.42 46.36H212.35C212.462 45.6097 212.626 44.8679 212.84 44.14Z" fill="#D24322"/>
<path d="M181.88 41.8698L181.82 41.5898V41.8298L181.88 41.8698Z" fill="#D24322"/>
<path d="M188.3 10.7998C186.583 10.7998 184.936 11.4811 183.721 12.6942C182.506 13.9073 181.823 15.5529 181.82 17.2698V35.9098L183.97 45.6098L182.85 45.8598L181.85 41.2298V41.5898L181.91 41.8698H181.85V41.6298C181.392 39.3814 180.667 37.1958 179.69 35.1198C178.808 33.2709 177.625 31.5812 176.19 30.1198C174.861 28.7714 173.272 27.7066 171.52 26.9898C169.703 26.2562 167.759 25.8892 165.8 25.9098C163.98 25.8968 162.17 26.1771 160.44 26.7398C158.767 27.2845 157.19 28.0912 155.77 29.1298C154.309 30.2026 153.009 31.4788 151.91 32.9198C150.74 34.4619 149.763 36.141 149 37.9198C148.178 39.8793 147.568 41.9209 147.18 44.0098C146.325 48.6374 146.325 53.3823 147.18 58.0098C147.57 60.1016 148.18 62.1464 149 64.1098C149.758 65.8912 150.735 67.5709 151.91 69.1098C153.011 70.5519 154.311 71.8312 155.77 72.9098C157.192 73.9477 158.768 74.7574 160.44 75.3098C162.172 75.8677 163.981 76.1479 165.8 76.1398C167.759 76.1604 169.703 75.7934 171.52 75.0598C173.273 74.34 174.862 73.2718 176.19 71.9198C177.628 70.4602 178.811 68.7702 179.69 66.9198C180.667 64.8368 181.392 62.6446 181.85 60.3898V60.1798L181.91 60.1098L181.85 60.3898V68.3898C181.85 70.1137 182.535 71.767 183.754 72.986C184.973 74.205 186.626 74.8898 188.35 74.8898C190.074 74.8898 191.727 74.205 192.946 72.986C194.165 71.767 194.85 70.1137 194.85 68.3898V17.2698C194.85 16.4134 194.68 15.5655 194.35 14.7752C194.02 13.985 193.536 13.2682 192.927 12.6663C192.317 12.0645 191.595 11.5896 190.8 11.2692C190.006 10.9488 189.156 10.7892 188.3 10.7998ZM181.48 55.0798C181.275 56.2665 180.94 57.4269 180.48 58.5398C180.077 59.5314 179.535 60.4606 178.87 61.2998C178.244 62.083 177.494 62.7586 176.65 63.2998C175.794 63.8521 174.856 64.264 173.87 64.5198C172.797 64.8043 171.69 64.9422 170.58 64.9298C168.94 64.967 167.31 64.6675 165.79 64.0498C164.431 63.4739 163.243 62.5579 162.34 61.3898C161.358 60.0789 160.644 58.587 160.24 56.9998C159.735 55.0203 159.496 52.9824 159.53 50.9398C159.502 48.9179 159.738 46.901 160.23 44.9398C160.624 43.3519 161.339 41.8614 162.33 40.5598C163.239 39.3963 164.43 38.4841 165.79 37.9098C167.309 37.2887 168.939 36.9858 170.58 37.0198C171.69 37.0124 172.796 37.1502 173.87 37.4298C174.855 37.6935 175.792 38.1084 176.65 38.6598C177.494 39.2005 178.244 39.8761 178.87 40.6598C179.534 41.4917 180.077 42.4144 180.48 43.3998C180.94 44.5127 181.275 45.6731 181.48 46.8598C181.933 49.5945 181.933 52.3851 181.48 55.1198V55.0798Z" fill="#D24322"/>
<path d="M105.1 51.8198H90.7402C89.4995 57.4319 86.3807 62.4524 81.8994 66.0513C77.4181 69.6501 71.8427 71.6117 66.0952 71.6117C60.3476 71.6117 54.7722 69.6501 50.2909 66.0513C45.8096 62.4524 42.6908 57.4319 41.4501 51.8198H26.9102C27.9994 59.6898 31.4395 67.0476 36.7802 72.9298C36.842 72.9883 36.8988 73.0519 36.9501 73.1198C37.2801 73.4798 37.6201 73.8298 37.9501 74.1798L38.3801 74.5998L39.2001 75.3898L39.8902 76.0098C47.1094 82.4258 56.4319 85.9698 66.0901 85.9698C75.7484 85.9698 85.0709 82.4258 92.2901 76.0098L92.9702 75.3898L93.7901 74.5998L94.2202 74.1798C94.5602 73.8298 94.9002 73.4798 95.2202 73.1198L95.3902 72.9298C100.735 67.0495 104.179 59.6913 105.27 51.8198H105.1Z" fill="#D24322"/>
<path d="M105.58 46.3102C105.463 37.0419 102.113 28.1055 96.1074 21.0449C90.1022 13.9843 81.8193 9.24299 72.6899 7.64023C72.776 6.83316 72.7185 6.01722 72.5199 5.23023C72.1077 3.59796 71.113 2.17269 69.7231 1.2228C68.3332 0.272913 66.6439 -0.136056 64.9734 0.0729081C63.3029 0.281873 61.7665 1.09435 60.6534 2.35735C59.5402 3.62035 58.9273 5.24673 58.9299 6.93023C58.9147 7.16665 58.9147 7.40381 58.9299 7.64023C52.8596 8.70507 47.1211 11.1703 42.1699 14.8402H32.3399C32.1314 14.8432 31.9238 14.8666 31.7199 14.9102C31.0272 15.075 30.4 15.4444 29.9199 15.9702C29.3798 16.6008 28.6434 17.0315 27.829 17.1929C27.0146 17.3543 26.1696 17.2371 25.4299 16.8602C24.9374 16.5779 24.4948 16.2164 24.1199 15.7902C23.6636 15.3476 23.0917 15.0426 22.4699 14.9102C21.7182 14.7391 20.9299 14.8478 20.2525 15.2159C19.5752 15.584 19.0552 16.1864 18.7899 16.9102C18.569 17.4669 18.5067 18.0738 18.6099 18.6637C18.7131 19.2536 18.9778 19.8034 19.3746 20.2519C19.7713 20.7005 20.2847 21.0303 20.8575 21.2048C21.4304 21.3792 22.0404 21.3915 22.6199 21.2402C23.1988 21.0891 23.7248 20.7812 24.1399 20.3502C24.7108 19.6714 25.4803 19.1888 26.3399 18.9702C27.0431 18.8359 27.7697 18.8962 28.4412 19.1447C29.1127 19.3932 29.7035 19.8204 30.1499 20.3802C30.568 20.8438 31.1203 21.1654 31.7299 21.3002C32.097 21.3653 32.4727 21.3653 32.8399 21.3002H41.3399C42.1727 21.3002 42.9713 21.631 43.5602 22.2199C44.1491 22.8088 44.4799 23.6075 44.4799 24.4402C44.4799 25.273 44.1491 26.0717 43.5602 26.6605C42.9713 27.2494 42.1727 27.5802 41.3399 27.5802H26.8399L23.6299 27.5302H22.6299L22.4099 27.5802C21.8723 27.6992 21.3756 27.9579 20.9699 28.3302C20.5874 28.7474 20.1616 29.1229 19.6999 29.4502C18.936 29.8819 18.0448 30.0312 17.1819 29.8722C16.3191 29.7132 15.5396 29.2559 14.9799 28.5802C14.5476 28.1301 14.0017 27.8053 13.3999 27.6402C13.203 27.5883 13.0024 27.5516 12.7999 27.5302H12.5299C11.6864 27.5302 10.8769 27.8632 10.2777 28.4569C9.67842 29.0505 9.33779 29.8567 9.32988 30.7002V30.7802C9.33849 31.4732 9.57684 32.1437 10.0076 32.6867C10.4383 33.2296 11.037 33.6142 11.7099 33.7802H11.9499C12.112 33.8073 12.2757 33.824 12.4399 33.8302H13.0299C13.7076 33.7271 14.3365 33.4161 14.8299 32.9402C16.9799 30.8802 18.6999 30.8702 20.8299 32.9402C21.0039 33.1012 21.1876 33.2515 21.3799 33.3902C21.8695 33.672 22.4164 33.8395 22.9799 33.8802H30.8999C31.3324 33.8253 31.7715 33.902 32.1599 34.1002H32.2499C32.9085 34.3768 33.45 34.8743 33.7813 35.5071C34.1125 36.1399 34.2128 36.8684 34.0647 37.5671C33.9167 38.2659 33.5296 38.8912 32.9702 39.3353C32.4108 39.7794 31.714 40.0145 30.9999 40.0002H13.6999H13.1999C12.5911 40.0926 12.0237 40.3641 11.5699 40.7802C11.1968 41.1937 10.7774 41.5628 10.3199 41.8802C9.57042 42.3084 8.69372 42.458 7.84468 42.3025C6.99563 42.1469 6.22888 41.6963 5.67988 41.0302C5.10898 40.4519 4.3498 40.0971 3.53988 40.0302H3.26988C2.44227 40.0302 1.64811 40.3569 1.0601 40.9393C0.472095 41.5217 0.13779 42.3127 0.129883 43.1402C0.129883 43.2002 0.129883 43.2502 0.129883 43.3002C0.129883 43.3502 0.129883 43.5902 0.129883 43.7302C0.129883 43.8702 0.129882 43.8702 0.179882 43.9302C0.209279 44.06 0.249416 44.1871 0.299881 44.3102L0.359882 44.4702C0.429882 44.6102 0.499884 44.7402 0.579884 44.8702L0.639881 44.9502C0.924856 45.3724 1.30916 45.7181 1.75902 45.957C2.20888 46.1959 2.71053 46.3206 3.21988 46.3202H3.72988C4.39871 46.2141 5.01948 45.9072 5.50988 45.4402C7.61988 43.4402 9.31988 43.4402 11.3799 45.3902C11.5799 45.5802 11.8099 45.7402 11.9199 45.8302C12.4051 46.122 12.9545 46.2903 13.5199 46.3202H26.7399C26.7399 46.3202 26.7399 46.4302 26.7399 46.4902C26.7399 47.3202 26.7399 48.1402 26.8299 48.9602C26.8251 49.0168 26.8251 49.0737 26.8299 49.1302H40.9999C40.8959 48.1971 40.8424 47.2591 40.8399 46.3202C40.7731 42.9627 41.3766 39.6256 42.6153 36.5043C43.854 33.3829 45.7028 30.54 48.0537 28.1419C50.4045 25.7438 53.2101 23.8387 56.3062 22.5382C59.4023 21.2376 62.7267 20.5678 66.0849 20.5678C69.443 20.5678 72.7675 21.2376 75.8636 22.5382C78.9597 23.8387 81.7653 25.7438 84.1161 28.1419C86.4669 30.54 88.3158 33.3829 89.5545 36.5043C90.7931 39.6256 91.3967 42.9627 91.3299 46.3202C91.3273 47.2591 91.2739 48.1971 91.1699 49.1302H105.36C105.355 49.067 105.355 49.0035 105.36 48.9402C105.46 48.0602 105.47 47.3402 105.55 46.4902C105.555 46.4137 105.555 46.3368 105.55 46.2602L105.58 46.3102Z" fill="#D24322"/>
<path d="M408 26.3799H394.51L386.63 49.0599H400.07L408 26.3799Z" fill="#F27322"/>
<path d="M382.69 60.4301C382.421 61.5093 381.787 62.4622 380.896 63.1275C380.005 63.7927 378.911 64.1293 377.8 64.0801H359.85C358.4 64.0801 357.68 63.2301 357.68 61.5401C357.677 61.0996 357.741 60.6612 357.87 60.2401L360.79 51.8701H347.35L343.51 62.7201C342.663 64.8511 342.18 67.1091 342.08 69.4001C342.08 73.6134 344.537 75.7168 349.45 75.7101H385.29C386.677 75.7208 388.047 75.4056 389.29 74.7901C390.761 74.0237 391.871 72.7088 392.38 71.1301L399.12 51.8701H385.66L382.69 60.4301Z" fill="#F27322"/>
<path d="M369.69 26.3799H356.38L348.35 49.0599H361.77L369.69 26.3799Z" fill="#F27322"/>
<path d="M421.91 41.7299C422.161 40.635 422.788 39.6625 423.681 38.9812C424.574 38.2999 425.678 37.9527 426.8 37.9999H444.75C446.19 37.9999 446.92 38.8699 446.92 40.5999C446.916 41.0201 446.852 41.4376 446.73 41.8399L444.21 49.0399H457.74L461.15 39.4199C461.953 37.279 462.412 35.0244 462.51 32.7399C462.51 28.4932 460.057 26.3665 455.15 26.3599H413.86L405.92 49.0399H419.36L421.91 41.7299Z" fill="#F27322"/>
<path d="M434.91 75.7101H448.28L456.74 51.8701H443.23L434.91 75.7101Z" fill="#F27322"/>
<path d="M396.59 75.7101H410.09L418.38 51.8701H404.94L396.59 75.7101Z" fill="#F27322"/>
<path d="M458.84 63.0001C458.101 64.8828 457.643 66.864 457.48 68.8801C457.48 73.4201 461.113 75.6867 468.38 75.6801H506.69L510.77 64.0501H475.25C473.6 64.0501 472.77 63.4001 472.77 62.1101C472.802 61.4242 472.947 60.7484 473.2 60.1101L474.26 56.9201H513.26L515.06 51.8301H462.7L458.84 63.0001Z" fill="#F27322"/>
<path d="M481.87 38.3299C482.892 38.0704 483.946 37.9593 485 37.9999H519.9L523.83 26.3599H476.79C473.29 26.3599 471.083 27.6399 470.17 30.1999L463.67 49.0399H516.05L517.37 45.2999H478.47L480.14 40.1499C480.262 39.7302 480.482 39.3459 480.783 39.0292C481.084 38.7125 481.457 38.4726 481.87 38.3299Z" fill="#F27322"/>
<path d="M294 54.8002C295.781 56.0513 297.925 56.6804 300.1 56.5902H322.94H323.19H323.47H323.75C324.075 56.6157 324.391 56.7068 324.68 56.858C324.969 57.0093 325.224 57.2176 325.43 57.4702C325.997 57.9733 326.397 58.6371 326.577 59.3732C326.758 60.1094 326.709 60.883 326.439 61.591C326.168 62.299 325.689 62.9079 325.064 63.3365C324.439 63.7651 323.698 63.9932 322.94 63.9902H290.26L286.11 75.6202H327.83C329.538 75.7317 331.223 75.176 332.53 74.0702C333.641 72.959 334.45 71.5821 334.88 70.0702C337.28 63.6569 339.097 58.7769 340.33 55.4302C340.777 54.2492 341.027 53.0025 341.07 51.7402H291.93C292.254 52.965 292.984 54.0438 294 54.8002Z" fill="#F27322"/>
<path d="M304.18 26.3799C300.39 26.3799 298.03 28.2099 297.13 31.8699C297.043 32.1965 295.433 36.9032 292.3 45.9899C291.942 46.9781 291.723 48.0114 291.65 49.0599H340.55C340.153 48.126 339.51 47.3173 338.69 46.7199C336.884 45.4741 334.721 44.8525 332.53 44.9499H310.06C309.742 44.9491 309.425 44.9257 309.11 44.8799H308.94C308.58 44.8132 308.239 44.67 307.94 44.4599C307.292 44.0718 306.789 43.4817 306.509 42.7803C306.228 42.0788 306.186 41.3047 306.388 40.5768C306.59 39.8489 307.026 39.2074 307.627 38.751C308.229 38.2945 308.964 38.0482 309.72 38.0499H341.86L345.94 26.4099L304.18 26.3799Z" fill="#F27322"/>
<path d="M321.28 56.32H321.54C321.453 56.3145 321.366 56.3145 321.28 56.32Z" fill="#F27322"/>
</g>
<defs>
<clipPath id="clip0_2050_484">
<rect width="524" height="86" fill="white"/>
</clipPath>
</defs>
</svg>
