<svg width="524" height="102" viewBox="0 0 524 102" fill="none" xmlns="http://www.w3.org/2000/svg">
<g clip-path="url(#clip0_2050_410)">
<path d="M257.51 76.9998C255.793 76.9998 254.146 76.3185 252.931 75.1054C251.716 73.8923 251.032 72.2467 251.03 70.5298V33.5298C251.03 31.8112 251.712 30.163 252.928 28.9477C254.143 27.7325 255.791 27.0498 257.51 27.0498C259.228 27.0498 260.877 27.7325 262.092 28.9477C263.307 30.163 263.99 31.8112 263.99 33.5298V43.8498L263.94 43.9198C264.298 41.5247 264.922 39.1769 265.8 36.9198C266.555 34.9756 267.645 33.1786 269.02 31.6098C270.315 30.1651 271.908 29.0188 273.69 28.2498C275.662 27.4291 277.784 27.0273 279.92 27.0698C280.671 27.0698 281.392 27.3676 281.924 27.8981C282.457 28.4285 282.757 29.1483 282.76 29.8998V34.2698C282.76 35.5959 282.233 36.8676 281.295 37.8053C280.358 38.743 279.086 39.2698 277.76 39.2698C275.521 39.2145 273.287 39.4908 271.13 40.0898C269.522 40.5433 268.061 41.4085 266.89 42.5998C265.786 43.8055 265.015 45.2767 264.65 46.8698C264.179 48.8681 263.957 50.917 263.99 52.9698V70.5498C263.982 72.2632 263.296 73.9037 262.081 75.1125C260.867 76.3212 259.223 76.9998 257.51 76.9998Z" fill="#D24322"/>
<path d="M181.82 60.9999V61.2199L181.88 60.9399L181.82 60.9999Z" fill="#D24322"/>
<path d="M119.06 76.9998C117.343 76.9998 115.697 76.3185 114.482 75.1054C113.267 73.8923 112.583 72.2467 112.58 70.5298V33.5298C112.58 31.8112 113.263 30.163 114.478 28.9477C115.693 27.7325 117.341 27.0498 119.06 27.0498C120.777 27.0525 122.423 27.7363 123.636 28.9513C124.849 30.1662 125.53 31.8129 125.53 33.5298V43.8498V43.9198C125.879 41.5228 126.503 39.1739 127.39 36.9198C128.146 34.9756 129.235 33.1786 130.61 31.6098C131.903 30.163 133.497 29.0162 135.28 28.2498C137.252 27.4283 139.374 27.0264 141.51 27.0698C141.882 27.0698 142.25 27.143 142.593 27.2852C142.936 27.4274 143.248 27.6359 143.511 27.8987C143.774 28.1615 143.982 28.4735 144.125 28.8168C144.267 29.1602 144.34 29.5282 144.34 29.8998V34.2698C144.34 35.5959 143.813 36.8676 142.876 37.8053C141.938 38.743 140.666 39.2698 139.34 39.2698C137.102 39.2138 134.867 39.4901 132.71 40.0898C131.109 40.5135 129.656 41.3706 128.511 42.5668C127.366 43.7631 126.573 45.252 126.22 46.8698C125.749 48.8681 125.527 50.917 125.56 52.9698V70.5498C125.557 71.4003 125.387 72.2419 125.059 73.0266C124.731 73.8112 124.251 74.5234 123.647 75.1225C123.044 75.7216 122.328 76.1957 121.541 76.5178C120.753 76.84 119.911 77.0037 119.06 76.9998Z" fill="#D24322"/>
<path d="M239.68 59.5001H237.4C236.467 59.5031 235.557 59.789 234.79 60.3201C234.235 60.6888 233.759 61.1648 233.39 61.7201C233.36 61.7543 233.333 61.7911 233.31 61.8301L233.04 62.2101L232.78 62.5801C232.14 63.4406 231.367 64.1935 230.49 64.8101C229.618 65.419 228.647 65.8724 227.62 66.1501C224.788 66.8944 221.791 66.7122 219.07 65.6301C217.615 65.0126 216.319 64.0722 215.28 62.8801C214.193 61.5983 213.38 60.1077 212.89 58.5001C212.558 57.4313 212.33 56.3329 212.21 55.2201H238C239.18 55.2186 240.312 54.7515 241.15 53.9201L245.15 49.9201C245.645 49.4295 246.017 48.8282 246.234 48.1658C246.452 47.5034 246.509 46.7988 246.4 46.1101C246.14 44.5035 245.735 42.9238 245.19 41.3901C244.166 38.4659 242.557 35.7813 240.46 33.5001C238.395 31.304 235.881 29.5783 233.09 28.4401C230.042 27.2194 226.783 26.6144 223.5 26.6601C220.169 26.6146 216.862 27.2298 213.77 28.4701C210.926 29.6237 208.359 31.3689 206.24 33.5901C204.099 35.8706 202.448 38.5662 201.39 41.5101C199.083 48.1522 199.083 55.378 201.39 62.0201C202.462 64.995 204.133 67.7179 206.3 70.0201C208.439 72.2544 211.03 74.0067 213.9 75.1601C217.03 76.4023 220.373 77.0172 223.74 76.9701C226.486 76.9925 229.219 76.5877 231.84 75.7701C234.255 75.0141 236.522 73.8469 238.54 72.3201C240.515 70.7967 242.207 68.9385 243.54 66.8301V66.7701C243.994 66.0553 244.247 65.2316 244.273 64.3853C244.299 63.539 244.097 62.7013 243.688 61.96C243.279 61.2186 242.678 60.6009 241.948 60.1717C241.219 59.7424 240.387 59.5174 239.54 59.5201L239.68 59.5001ZM212.84 45.0001C213.288 43.3894 214.056 41.8859 215.1 40.5801C216.072 39.3874 217.313 38.4416 218.72 37.8201C220.256 37.1662 221.911 36.8425 223.58 36.8701C225.247 36.8445 226.9 37.1859 228.42 37.8701C229.805 38.506 231.006 39.4832 231.91 40.7101C232.918 42.1093 233.642 43.6925 234.04 45.3701C234.19 45.9601 234.31 46.6001 234.42 47.2601H212.35C212.461 46.4963 212.624 45.7411 212.84 45.0001Z" fill="#D24322"/>
<path d="M181.88 42.7199L181.82 42.4399V42.6799L181.88 42.7199Z" fill="#D24322"/>
<path d="M188.3 11.6498C186.581 11.6498 184.933 12.3325 183.718 13.5477C182.503 14.763 181.82 16.4112 181.82 18.1298V36.7598L183.97 46.4598L182.85 46.7098L181.85 42.0798V42.4398L181.91 42.7198H181.85V42.4798C181.392 40.2314 180.667 38.0458 179.69 35.9698C178.808 34.1208 177.625 32.4312 176.19 30.9698C174.861 29.6214 173.272 28.5566 171.52 27.8398C169.703 27.1062 167.759 26.7392 165.8 26.7598C163.981 26.7517 162.172 27.0319 160.44 27.5898C158.768 28.1387 157.193 28.945 155.77 29.9798C154.309 31.0525 153.009 32.3288 151.91 33.7698C150.74 35.3119 149.763 36.991 149 38.7698C148.178 40.7293 147.568 42.7708 147.18 44.8598C146.325 49.4873 146.325 54.2322 147.18 58.8598C147.57 60.9516 148.18 62.9964 149 64.9598C149.758 66.7412 150.735 68.4209 151.91 69.9598C153.009 71.4043 154.308 72.684 155.77 73.7598C157.188 74.8053 158.765 75.6156 160.44 76.1598C162.17 76.7226 163.98 77.0028 165.8 76.9898C167.759 77.0104 169.703 76.6434 171.52 75.9098C173.272 75.193 174.861 74.1282 176.19 72.7798C177.629 71.3026 178.812 69.5959 179.69 67.7298C180.667 65.6503 181.392 63.4614 181.85 61.2098V60.9998L181.91 60.9398L181.85 61.2198V69.2198C181.85 70.9437 182.535 72.597 183.754 73.816C184.973 75.035 186.626 75.7198 188.35 75.7198C190.074 75.7198 191.727 75.035 192.946 73.816C194.165 72.597 194.85 70.9437 194.85 69.2198V18.1298C194.85 17.2729 194.68 16.4245 194.35 15.6337C194.02 14.8429 193.536 14.1255 192.927 13.5228C192.318 12.9202 191.596 12.4443 190.801 12.1228C190.007 11.8013 189.157 11.6405 188.3 11.6498ZM181.48 55.9298C181.277 57.1168 180.941 58.2773 180.48 59.3898C180.077 60.3813 179.535 61.3106 178.87 62.1498C178.244 62.933 177.494 63.6085 176.65 64.1498C175.794 64.7021 174.856 65.114 173.87 65.3698C172.797 65.6577 171.691 65.799 170.58 65.7898C168.939 65.8238 167.309 65.5209 165.79 64.8998C164.431 64.3239 163.243 63.4079 162.34 62.2398C161.358 60.9288 160.644 59.437 160.24 57.8498C159.735 55.8703 159.496 53.8324 159.53 51.7898C159.498 49.7512 159.733 47.7172 160.23 45.7398C160.626 44.1526 161.34 42.6624 162.33 41.3598C163.242 40.1991 164.432 39.2875 165.79 38.7098C167.31 38.0921 168.94 37.7926 170.58 37.8298C171.69 37.8174 172.797 37.9553 173.87 38.2398C174.856 38.4956 175.794 38.9075 176.65 39.4598C177.492 40.0034 178.242 40.6787 178.87 41.4598C179.534 42.2917 180.077 43.2144 180.48 44.1998C180.939 45.3131 181.274 46.4734 181.48 47.6598C181.933 50.3945 181.933 53.1851 181.48 55.9198V55.9298Z" fill="#D24322"/>
<path d="M105.1 52.6699H90.7402C89.4995 58.282 86.3807 63.3025 81.8994 66.9014C77.4181 70.5002 71.8427 72.4618 66.0952 72.4618C60.3476 72.4618 54.7722 70.5002 50.2909 66.9014C45.8096 63.3025 42.6908 58.282 41.4501 52.6699H26.9102C27.9976 60.5405 31.4379 67.8987 36.7802 73.7799L37.0002 73.9999C37.3302 74.3599 37.6702 74.7099 38.0002 75.0599L38.4302 75.4799L39.2502 76.2699L39.9402 76.8899C47.1594 83.3059 56.4819 86.8499 66.1402 86.8499C75.7984 86.8499 85.1209 83.3059 92.3401 76.8899L93.0202 76.2699L93.8401 75.4899L94.2702 75.0599C94.6102 74.7099 94.9502 74.3599 95.2702 73.9999L95.4402 73.8099C100.785 67.9296 104.229 60.5714 105.32 52.6999L105.1 52.6699Z" fill="#D24322"/>
<path d="M105.58 47.1599C105.463 37.8916 102.113 28.9552 96.1077 21.8946C90.1024 14.834 81.8196 10.0927 72.6901 8.48993C72.7763 7.68286 72.7187 6.86692 72.5201 6.07993C72.1078 4.44681 71.1123 3.02091 69.7213 2.07102C68.3303 1.12113 66.6399 0.712856 64.9687 0.923141C63.2975 1.13342 61.7609 1.94775 60.6486 3.21262C59.5363 4.4775 58.9251 6.10556 58.9301 7.78993C58.9152 8.02303 58.9152 8.25683 58.9301 8.48993C52.8598 9.55477 47.1213 12.02 42.1701 15.6899H32.3401C32.1317 15.6929 31.924 15.7163 31.7201 15.7599C31.0292 15.9293 30.4033 16.2979 29.9201 16.8199C29.3801 17.4505 28.6437 17.8812 27.8293 18.0426C27.0149 18.204 26.1699 18.0868 25.4301 17.7099C24.9377 17.4276 24.4951 17.0661 24.1201 16.6399C23.6638 16.1973 23.092 15.8923 22.4701 15.7599C21.7186 15.591 20.9312 15.7007 20.2544 16.0685C19.5775 16.4364 19.0572 17.0374 18.7901 17.7599C18.5191 18.4588 18.4963 19.2295 18.7257 19.9431C18.9551 20.6568 19.4226 21.2699 20.0501 21.6799C20.4251 21.9262 20.8481 22.0901 21.2911 22.1608C21.7342 22.2315 22.1871 22.2073 22.6201 22.0899C23.1991 21.9388 23.7251 21.6309 24.1401 21.1999C24.7089 20.5206 25.4796 20.0407 26.3401 19.8299C27.0425 19.6933 27.7688 19.7516 28.4405 19.9984C29.1121 20.2452 29.7033 20.6711 30.1501 21.2299C30.5683 21.6935 31.1206 22.0151 31.7301 22.1499C32.0973 22.215 32.473 22.215 32.8401 22.1499H41.3401C42.1729 22.1499 42.9716 22.4808 43.5605 23.0696C44.1493 23.6585 44.4801 24.4572 44.4801 25.2899C44.4801 26.1227 44.1493 26.9214 43.5605 27.5102C42.9716 28.0991 42.1729 28.4299 41.3401 28.4299H26.8401L23.6301 28.3799H22.6301L22.4101 28.4299C21.8725 28.5489 21.3758 28.8076 20.9701 29.1799C20.5876 29.5971 20.1619 29.9726 19.7001 30.2999C18.9355 30.7248 18.0459 30.8675 17.1868 30.703C16.3277 30.5385 15.5537 30.0772 15.0001 29.3999C14.5679 28.9498 14.0219 28.625 13.4201 28.4599C13.2232 28.408 13.0226 28.3713 12.8201 28.3499H12.5501C11.7066 28.3499 10.8972 28.6829 10.2979 29.2766C9.69867 29.8702 9.35804 30.6765 9.35014 31.5199V31.6099C9.35703 32.3034 9.59475 32.9747 10.0257 33.518C10.4567 34.0613 11.0564 34.4455 11.7301 34.6099H11.9701C12.1322 34.637 12.2959 34.6537 12.4601 34.6599H13.0501C13.7278 34.5568 14.3568 34.2458 14.8501 33.7699C17.0001 31.7099 18.7201 31.6999 20.8501 33.7199C21.0242 33.8809 21.2079 34.0312 21.4001 34.1699C21.8879 34.456 22.4359 34.6238 23.0001 34.6599H30.9001C31.3327 34.605 31.7718 34.6817 32.1601 34.8799H32.2501C33.0326 35.0601 33.7133 35.5396 34.1464 36.2157C34.5795 36.8918 34.7305 37.7107 34.567 38.4968C34.4035 39.2829 33.9385 39.9737 33.2718 40.421C32.605 40.8684 31.7895 41.0367 31.0001 40.8899H13.7001H13.2001C12.5914 40.9823 12.024 41.2538 11.5701 41.6699C11.1971 42.0834 10.7777 42.4525 10.3201 42.7699C9.57067 43.1982 8.69398 43.3477 7.84493 43.1922C6.99589 43.0366 6.22914 42.586 5.68014 41.9199C5.10924 41.3416 4.35006 40.9868 3.54014 40.9199H3.27014C2.44938 40.9224 1.66222 41.2461 1.0772 41.8218C0.49218 42.3975 0.155816 43.1793 0.140137 43.9999C0.140137 44.0599 0.140137 44.1099 0.140137 44.1599C0.140137 44.2099 0.140137 44.4499 0.140137 44.5899C0.140137 44.7299 0.140136 44.7299 0.190136 44.7899C0.219533 44.9197 0.259674 45.0468 0.310139 45.1699L0.370136 45.3299C0.440136 45.4699 0.510137 45.5999 0.590137 45.7299L0.650139 45.8199C0.936869 46.2396 1.3218 46.5829 1.77145 46.82C2.22109 47.057 2.72184 47.1805 3.23014 47.1799H3.74014C4.40896 47.0738 5.02973 46.7669 5.52014 46.2999C7.63014 44.2999 9.33014 44.2999 11.3901 46.2499C11.5901 46.4399 11.8201 46.5999 11.9301 46.6899C12.4153 46.9817 12.9647 47.15 13.5301 47.1799H26.7401C26.7401 47.2299 26.7401 47.2899 26.7401 47.3499C26.7401 48.1799 26.7401 48.9999 26.8301 49.8199C26.8253 49.8765 26.8253 49.9334 26.8301 49.9899H41.0001C40.8961 49.0568 40.8427 48.1188 40.8401 47.1799C40.7733 43.8224 41.3769 40.4853 42.6156 37.364C43.8542 34.2426 45.7031 31.3997 48.0539 29.0016C50.4048 26.6035 53.2103 24.6984 56.3064 23.3979C59.4025 22.0973 62.727 21.4275 66.0851 21.4275C69.4433 21.4275 72.7677 22.0973 75.8638 23.3979C78.9599 24.6984 81.7655 26.6035 84.1164 29.0016C86.4672 31.3997 88.3161 34.2426 89.5547 37.364C90.7934 40.4853 91.397 43.8224 91.3301 47.1799C91.3276 48.1188 91.2742 49.0568 91.1701 49.9899H105.36C105.355 49.9267 105.355 49.8632 105.36 49.7999C105.46 48.9199 105.47 48.1999 105.55 47.3499C105.555 47.2734 105.555 47.1965 105.55 47.1199L105.58 47.1599Z" fill="#D24322"/>
<path d="M408 27.23H394.51L386.63 49.91H400.07L408 27.23Z" fill="#F27322"/>
<path d="M382.69 61.2802C382.421 62.3594 381.787 63.3123 380.896 63.9775C380.005 64.6428 378.911 64.9793 377.8 64.9302H359.85C358.4 64.9302 357.68 64.0802 357.68 62.3902C357.677 61.9498 357.741 61.5114 357.87 61.0902L360.79 52.7202H347.35L343.51 63.5702C342.663 65.7012 342.18 67.9592 342.08 70.2502C342.08 74.4569 344.537 76.5636 349.45 76.5702H385.29C386.678 76.5823 388.05 76.2635 389.29 75.6402C390.76 74.8778 391.871 73.5663 392.38 71.9902L399.12 52.7202H385.66L382.69 61.2802Z" fill="#F27322"/>
<path d="M369.69 27.23H356.38L348.35 49.91H361.77L369.69 27.23Z" fill="#F27322"/>
<path d="M421.91 42.5902C422.163 41.4972 422.791 40.5271 423.684 39.8477C424.577 39.1684 425.679 38.8226 426.8 38.8702H444.75C446.19 38.8702 446.92 39.7402 446.92 41.4702C446.916 41.8905 446.852 42.308 446.73 42.7102L444.21 49.9202H457.74L461.15 40.3002C461.953 38.156 462.412 35.898 462.51 33.6102C462.51 29.3636 460.057 27.2402 455.15 27.2402H413.86L405.92 49.9202H419.36L421.91 42.5902Z" fill="#F27322"/>
<path d="M434.91 76.5702H448.28L456.74 52.7202H443.23L434.91 76.5702Z" fill="#F27322"/>
<path d="M396.59 76.5702H410.09L418.38 52.7202H404.94L396.59 76.5702Z" fill="#F27322"/>
<path d="M458.84 63.88C458.101 65.7627 457.643 67.7439 457.48 69.7599C457.48 74.2999 461.113 76.57 468.38 76.57H506.69L510.77 64.9299H475.25C473.6 64.9299 472.77 64.29 472.77 62.99C472.802 62.3041 472.947 61.6283 473.2 60.99L474.26 57.8H513.26L515.06 52.71H462.7L458.84 63.88Z" fill="#F27322"/>
<path d="M481.87 39.1802C482.903 38.9246 483.967 38.8202 485.03 38.8702H519.93L523.86 27.2402H476.79C473.29 27.2402 471.08 28.5102 470.17 31.0702L463.67 49.9202H516.05L517.37 46.1802H478.47L480.14 41.0202C480.26 40.5976 480.48 40.21 480.781 39.8899C481.082 39.5697 481.456 39.3264 481.87 39.1802Z" fill="#F27322"/>
<path d="M294 55.6501C295.781 56.9011 297.925 57.5302 300.1 57.4401H322.94H323.19H323.47H323.75C324.075 57.4655 324.391 57.5566 324.68 57.7079C324.969 57.8591 325.224 58.0674 325.43 58.3201C325.997 58.8231 326.397 59.4869 326.577 60.2231C326.758 60.9592 326.709 61.7328 326.439 62.4409C326.168 63.1489 325.689 63.7578 325.064 64.1864C324.439 64.615 323.698 64.843 322.94 64.8401H290.26L286.11 76.4801H327.83C329.537 76.5863 331.22 76.0313 332.53 74.9301C333.638 73.8161 334.446 72.4402 334.88 70.9301C337.28 64.5168 339.097 59.6368 340.33 56.2901C340.777 55.109 341.027 53.8624 341.07 52.6001H291.93C292.256 53.8212 292.985 54.8961 294 55.6501Z" fill="#F27322"/>
<path d="M304.18 27.2402C300.39 27.2402 298.03 29.0602 297.13 32.7202C297.043 33.0536 295.433 37.7602 292.3 46.8402C291.941 47.8317 291.722 48.8683 291.65 49.9202H340.55C340.153 48.9835 339.51 48.1715 338.69 47.5702C336.884 46.3244 334.721 45.7029 332.53 45.8002H310.06C309.742 45.7994 309.425 45.776 309.11 45.7302H308.94C308.579 45.6677 308.237 45.5241 307.94 45.3102C307.292 44.9222 306.789 44.3321 306.509 43.6306C306.228 42.9291 306.186 42.155 306.388 41.4271C306.59 40.6992 307.026 40.0578 307.627 39.6013C308.229 39.1448 308.964 38.8985 309.72 38.9002H341.86L345.94 27.2702L304.18 27.2402Z" fill="#F27322"/>
<path d="M335.15 89.8701L337.15 93.7901L340.23 89.8701H341.7L337.62 95.0801L337.13 98.5001H335.83L336.31 95.0801L333.69 89.8701H335.15Z" fill="#606060"/>
<path d="M341.32 95.42C341.449 94.5327 341.89 93.7206 342.565 93.1301C343.24 92.5397 344.103 92.2098 345 92.2C345.411 92.177 345.822 92.2482 346.202 92.4084C346.581 92.5686 346.919 92.8134 347.189 93.1241C347.459 93.4349 347.655 93.8033 347.761 94.2013C347.866 94.5992 347.88 95.0161 347.8 95.42C347.664 96.3063 347.218 97.1152 346.54 97.7016C345.861 98.2881 344.997 98.6137 344.1 98.62C343.693 98.6373 343.287 98.5627 342.913 98.4016C342.539 98.2406 342.206 97.9973 341.939 97.6898C341.672 97.3823 341.478 97.0186 341.37 96.6256C341.263 96.2326 341.246 95.8206 341.32 95.42ZM344.27 97.6101C344.851 97.5691 345.4 97.3288 345.825 96.9298C346.249 96.5308 346.523 95.9975 346.6 95.42C346.659 95.1601 346.66 94.8902 346.602 94.6299C346.545 94.3696 346.43 94.1254 346.266 93.9148C346.103 93.7043 345.894 93.5328 345.656 93.4126C345.418 93.2925 345.157 93.2267 344.89 93.2201C344.307 93.2614 343.757 93.5031 343.332 93.9041C342.908 94.3051 342.635 94.8407 342.56 95.42C342.5 95.6795 342.5 95.9489 342.557 96.2087C342.615 96.4686 342.73 96.7122 342.894 96.922C343.058 97.1318 343.266 97.3024 343.504 97.4214C343.742 97.5405 344.004 97.6049 344.27 97.6101Z" fill="#606060"/>
<path d="M349.37 95.6901L349.84 92.3301H351.07L350.61 95.6401C350.45 96.8101 350.97 97.5701 352.04 97.5701C352.585 97.5568 353.106 97.3471 353.509 96.9796C353.911 96.612 354.167 96.1115 354.23 95.5701L354.68 92.3401H355.92L355 98.5001H353.77L353.9 97.6101C353.628 97.9315 353.287 98.188 352.903 98.361C352.519 98.534 352.101 98.6191 351.68 98.6101C350 98.6301 349.11 97.5201 349.37 95.6901Z" fill="#606060"/>
<path d="M357.07 98.5002L357.93 92.3302H359.16L359.04 93.2302C359.345 92.9118 359.711 92.6589 360.117 92.4869C360.523 92.315 360.959 92.2276 361.4 92.2302C361.667 92.2238 361.934 92.261 362.19 92.3402L361.72 93.4302C361.539 93.3728 361.35 93.3425 361.16 93.3402C360.566 93.3259 359.989 93.533 359.54 93.9212C359.09 94.3094 358.802 94.8509 358.73 95.4402L358.3 98.5202L357.07 98.5002Z" fill="#606060"/>
<path d="M373.41 89.8701L373.27 90.9501H368.21L367.81 93.7401H372.22L372.07 94.8101H367.67L367.15 98.5001H365.84L367.05 89.8701H373.41Z" fill="#606060"/>
<path d="M373.31 95.42C373.435 94.5293 373.877 93.7135 374.555 93.1221C375.232 92.5307 376.1 92.2033 377 92.2C377.411 92.177 377.822 92.2482 378.201 92.4084C378.581 92.5686 378.918 92.8134 379.189 93.1241C379.459 93.4349 379.654 93.8033 379.76 94.2013C379.866 94.5992 379.88 95.0161 379.8 95.42C379.664 96.3063 379.217 97.1152 378.539 97.7016C377.861 98.2881 376.996 98.6137 376.1 98.62C375.691 98.6428 375.282 98.572 374.905 98.4129C374.528 98.2538 374.192 98.0106 373.923 97.702C373.654 97.3934 373.459 97.0274 373.352 96.6319C373.246 96.2365 373.232 95.822 373.31 95.42ZM376.25 97.6101C376.832 97.5709 377.382 97.3313 377.807 96.932C378.232 96.5326 378.505 95.9983 378.58 95.42C378.639 95.1601 378.64 94.8902 378.582 94.6299C378.525 94.3696 378.41 94.1254 378.246 93.9148C378.083 93.7043 377.874 93.5328 377.636 93.4126C377.398 93.2925 377.136 93.2267 376.87 93.2201C376.287 93.2614 375.737 93.5031 375.312 93.9041C374.887 94.3051 374.615 94.8407 374.54 95.42C374.482 95.6793 374.483 95.9481 374.541 96.2072C374.6 96.4662 374.715 96.7091 374.878 96.9184C375.042 97.1278 375.249 97.2983 375.487 97.4179C375.724 97.5375 375.984 97.6031 376.25 97.6101Z" fill="#606060"/>
<path d="M381.15 95.4202C381.28 94.5261 381.727 93.7086 382.41 93.1173C383.093 92.526 383.967 92.2004 384.87 92.2002C385.281 92.1767 385.692 92.2478 386.071 92.408C386.45 92.5682 386.787 92.8132 387.057 93.1243C387.326 93.4353 387.521 93.804 387.625 94.2021C387.73 94.6001 387.742 95.0168 387.66 95.4202C387.527 96.3056 387.082 97.1143 386.405 97.7009C385.729 98.2875 384.865 98.6135 383.97 98.6202C383.56 98.6438 383.15 98.5738 382.77 98.4154C382.391 98.2571 382.053 98.0147 381.781 97.7064C381.51 97.3981 381.312 97.0321 381.202 96.636C381.093 96.24 381.075 95.8242 381.15 95.4202ZM384.15 97.6102C384.731 97.5692 385.28 97.329 385.705 96.93C386.129 96.531 386.403 95.9977 386.48 95.4202C386.539 95.1602 386.54 94.8904 386.482 94.6301C386.425 94.3698 386.31 94.1255 386.146 93.915C385.983 93.7045 385.774 93.5329 385.536 93.4128C385.298 93.2926 385.037 93.2268 384.77 93.2202C384.187 93.2597 383.635 93.5008 383.21 93.9021C382.785 94.3035 382.513 94.8401 382.44 95.4202C382.381 95.6756 382.379 95.9409 382.434 96.1972C382.489 96.4535 382.599 96.6946 382.758 96.9035C382.916 97.1123 383.118 97.2839 383.35 97.406C383.582 97.5282 383.838 97.5979 384.1 97.6102H384.15Z" fill="#606060"/>
<path d="M389 95.4201C389.13 94.5487 389.562 93.7504 390.219 93.164C390.877 92.5776 391.719 92.2401 392.6 92.2101C393.004 92.1859 393.409 92.2649 393.774 92.4399C394.14 92.6148 394.455 92.8799 394.69 93.2101L395.17 89.8301H396.4L395.18 98.4601H394L394.13 97.5201C393.833 97.8555 393.468 98.1237 393.06 98.3065C392.651 98.4893 392.208 98.5826 391.76 98.5801C391.357 98.5987 390.955 98.5262 390.584 98.3679C390.213 98.2096 389.883 97.9697 389.618 97.6659C389.352 97.3622 389.159 97.0025 389.052 96.6136C388.945 96.2247 388.927 95.8168 389 95.4201ZM392 97.6101C392.591 97.5773 393.153 97.3415 393.59 96.9424C394.027 96.5434 394.313 96.0057 394.4 95.4201C394.455 95.155 394.45 94.8811 394.386 94.618C394.322 94.355 394.201 94.1094 394.03 93.899C393.86 93.6885 393.645 93.5185 393.401 93.4011C393.157 93.2837 392.891 93.2219 392.62 93.2201C392.029 93.2555 391.469 93.4938 391.033 93.8946C390.598 94.2954 390.314 94.8342 390.23 95.4201C390.173 95.684 390.176 95.9573 390.239 96.22C390.302 96.4826 390.422 96.7278 390.592 96.9378C390.762 97.1478 390.976 97.3171 391.22 97.4335C391.463 97.5498 391.73 97.6101 392 97.6101Z" fill="#606060"/>
<path d="M397.26 97.8002C397.305 97.5691 397.43 97.3611 397.613 97.213C397.796 97.0648 398.025 96.9859 398.26 96.9902C398.364 96.9865 398.468 97.0055 398.565 97.0459C398.661 97.0862 398.747 97.1471 398.817 97.2241C398.888 97.3012 398.941 97.3926 398.972 97.4921C399.004 97.5915 399.013 97.6967 399 97.8002C398.958 98.0332 398.834 98.2434 398.651 98.3936C398.467 98.5438 398.237 98.6241 398 98.6202C397.894 98.6279 397.787 98.6113 397.689 98.5716C397.59 98.5318 397.501 98.4701 397.43 98.391C397.358 98.3119 397.306 98.2176 397.277 98.1152C397.247 98.0128 397.242 97.9051 397.26 97.8002Z" fill="#606060"/>
<path d="M404.24 94.1599C404.449 92.9312 405.083 91.8152 406.032 91.0071C406.981 90.199 408.184 89.7505 409.43 89.7399C409.999 89.7078 410.567 89.8043 411.093 90.0221C411.62 90.24 412.09 90.5737 412.47 90.9984C412.849 91.4231 413.128 91.9279 413.286 92.4752C413.443 93.0226 413.476 93.5984 413.38 94.1599C413.17 95.396 412.534 96.5197 411.582 97.3361C410.631 98.1526 409.424 98.6103 408.17 98.6299C407.599 98.6548 407.031 98.5514 406.505 98.3275C405.98 98.1035 405.512 97.7647 405.135 97.3358C404.758 96.907 404.482 96.3991 404.327 95.8495C404.172 95.2998 404.142 94.7225 404.24 94.1599ZM408.33 97.4999C409.241 97.4529 410.108 97.0962 410.788 96.4887C411.468 95.8812 411.921 95.0596 412.07 94.1599C412.144 93.7527 412.127 93.3342 412.019 92.9344C411.912 92.5346 411.718 92.1636 411.45 91.848C411.182 91.5324 410.848 91.2801 410.471 91.1093C410.094 90.9384 409.684 90.8533 409.27 90.8599C408.363 90.893 407.496 91.2403 406.818 91.8423C406.139 92.4444 405.691 93.2637 405.55 94.1599C405.472 94.5681 405.485 94.9886 405.588 95.3911C405.692 95.7937 405.884 96.1682 406.15 96.4876C406.416 96.8071 406.749 97.0636 407.126 97.2387C407.503 97.4137 407.914 97.5029 408.33 97.4999Z" fill="#606060"/>
<path d="M414.73 95.6901L415.2 92.3301H416.43L415.97 95.6401C415.81 96.8101 416.33 97.5701 417.4 97.5701C417.945 97.5568 418.466 97.3471 418.869 96.9796C419.271 96.612 419.527 96.1115 419.59 95.5701L420.04 92.3401H421.28L420.4 98.5101H419.17L419.3 97.6201C419.028 97.9415 418.687 98.198 418.303 98.371C417.919 98.544 417.501 98.6291 417.08 98.6201C415.34 98.6301 414.47 97.5201 414.73 95.6901Z" fill="#606060"/>
<path d="M422.43 98.5001L423.29 92.3301H424.52L424.4 93.2301C424.705 92.9116 425.071 92.6587 425.477 92.4868C425.883 92.3148 426.319 92.2275 426.76 92.2301C427.028 92.2244 427.294 92.2615 427.55 92.3401L427.08 93.4301C426.899 93.3726 426.71 93.3423 426.52 93.3401C425.927 93.3258 425.349 93.5329 424.9 93.9211C424.451 94.3093 424.162 94.8507 424.09 95.4401L423.66 98.5201L422.43 98.5001Z" fill="#606060"/>
<path d="M431.52 89.8701H438.52L438.38 90.9601H435.53L434.53 98.5001H433.22L434.22 90.9601H431.38L431.52 89.8701Z" fill="#606060"/>
<path d="M437.28 95.4198C437.404 94.5231 437.849 93.7019 438.534 93.1095C439.218 92.517 440.095 92.1937 441 92.1998C443 92.1998 444 93.6298 443.65 95.6298H438.51C438.474 95.8797 438.492 96.1344 438.564 96.3765C438.636 96.6186 438.759 96.8423 438.925 97.0323C439.091 97.2223 439.297 97.374 439.527 97.4772C439.757 97.5803 440.007 97.6324 440.26 97.6298C440.658 97.636 441.051 97.5488 441.409 97.3751C441.767 97.2014 442.079 96.9461 442.32 96.6298L443.1 97.1398C442.758 97.6151 442.308 98.0014 441.785 98.2659C441.263 98.5304 440.685 98.6655 440.1 98.6598C439.685 98.6889 439.268 98.6212 438.883 98.462C438.499 98.3029 438.156 98.0565 437.883 97.7424C437.609 97.4284 437.412 97.0551 437.308 96.652C437.203 96.249 437.194 95.8272 437.28 95.4198ZM438.66 94.7698H442.55C442.565 94.5509 442.533 94.3313 442.455 94.1262C442.377 93.9211 442.255 93.7354 442.098 93.5822C441.941 93.4289 441.753 93.3118 441.546 93.2388C441.339 93.1659 441.118 93.1389 440.9 93.1598C440.405 93.1608 439.923 93.3166 439.522 93.6053C439.12 93.894 438.819 94.3012 438.66 94.7698Z" fill="#606060"/>
<path d="M445 95.4198C445.136 94.53 445.583 93.7174 446.263 93.1274C446.943 92.5374 447.81 92.2086 448.71 92.1998C449.231 92.1692 449.749 92.2946 450.198 92.56C450.647 92.8255 451.006 93.2189 451.23 93.6899L450.35 94.2598C450.2 93.9399 449.956 93.6731 449.65 93.4946C449.345 93.3161 448.993 93.2342 448.64 93.2598C448.051 93.2922 447.49 93.5266 447.053 93.9236C446.616 94.3207 446.329 94.8561 446.24 95.4399C446.185 95.7071 446.191 95.9832 446.256 96.2482C446.321 96.5131 446.444 96.7603 446.616 96.9718C446.788 97.1834 447.005 97.3539 447.252 97.4712C447.498 97.5885 447.767 97.6495 448.04 97.6498C448.416 97.6444 448.785 97.5512 449.119 97.3776C449.452 97.2039 449.74 96.9547 449.96 96.6498L450.68 97.2598C450.329 97.6879 449.888 98.0335 449.389 98.272C448.89 98.5105 448.344 98.6361 447.79 98.6398C447.38 98.6594 446.972 98.5856 446.594 98.4241C446.217 98.2626 445.882 98.0176 445.613 97.7075C445.344 97.3975 445.15 97.0305 445.043 96.6342C444.937 96.2379 444.923 95.8227 445 95.4198Z" fill="#606060"/>
<path d="M451.89 98.5001L453.1 89.8701H454.33L453.87 93.2201C454.142 92.8987 454.483 92.6422 454.867 92.4692C455.251 92.2962 455.669 92.2111 456.09 92.2201C457.82 92.2201 458.7 93.3301 458.44 95.1601L458 98.5001H456.76L457.23 95.1901C457.39 94.0201 456.87 93.2601 455.79 93.2601C455.247 93.2758 454.728 93.4866 454.327 93.8539C453.927 94.2212 453.672 94.7204 453.61 95.2601L453.16 98.4901L451.89 98.5001Z" fill="#606060"/>
<path d="M459.56 98.4999L460.42 92.3299H461.65L461.53 93.2199C461.802 92.8985 462.143 92.6419 462.527 92.4689C462.911 92.2959 463.329 92.2108 463.75 92.2199C465.49 92.2199 466.36 93.3299 466.11 95.1599L465.62 98.5199H464.39L464.86 95.2099C465.02 94.0399 464.5 93.2799 463.43 93.2799C462.885 93.2932 462.364 93.5029 461.961 93.8704C461.559 94.2379 461.303 94.7385 461.24 95.2799L460.79 98.5099L459.56 98.4999Z" fill="#606060"/>
<path d="M467.62 95.42C467.75 94.5259 468.197 93.7084 468.88 93.1171C469.564 92.5259 470.437 92.2003 471.34 92.2C471.751 92.177 472.162 92.2482 472.542 92.4084C472.921 92.5686 473.259 92.8134 473.529 93.1241C473.799 93.4349 473.995 93.8033 474.101 94.2013C474.207 94.5992 474.22 95.0161 474.14 95.42C474.005 96.3063 473.558 97.1152 472.88 97.7016C472.202 98.2881 471.337 98.6137 470.44 98.62C470.03 98.6436 469.62 98.5736 469.241 98.4153C468.861 98.257 468.523 98.0145 468.252 97.7062C467.98 97.398 467.782 97.032 467.672 96.6359C467.563 96.2398 467.545 95.824 467.62 95.42ZM470.57 97.6101C471.151 97.5691 471.701 97.3288 472.125 96.9298C472.55 96.5308 472.823 95.9975 472.9 95.42C472.96 95.1601 472.96 94.8902 472.903 94.6299C472.845 94.3696 472.73 94.1254 472.567 93.9148C472.403 93.7043 472.195 93.5328 471.957 93.4126C471.718 93.2925 471.457 93.2267 471.19 93.2201C470.608 93.2614 470.057 93.5031 469.632 93.9041C469.208 94.3051 468.935 94.8407 468.86 95.42C468.803 95.6793 468.803 95.9481 468.862 96.2072C468.92 96.4662 469.035 96.7091 469.199 96.9184C469.362 97.1278 469.57 97.2983 469.807 97.4179C470.044 97.5375 470.305 97.6031 470.57 97.6101Z" fill="#606060"/>
<path d="M476.67 98.5001H475.44L476.64 89.8701H477.88L476.67 98.5001Z" fill="#606060"/>
<path d="M478.56 95.4198C478.686 94.5257 479.13 93.7071 479.812 93.1153C480.494 92.5235 481.367 92.1983 482.27 92.1998C482.682 92.1747 483.094 92.2446 483.474 92.4041C483.854 92.5636 484.193 92.8085 484.464 93.1197C484.734 93.4309 484.93 93.8003 485.035 94.1991C485.14 94.5979 485.152 95.0156 485.07 95.4198C484.935 96.306 484.488 97.1149 483.81 97.7014C483.131 98.2879 482.267 98.6135 481.37 98.6198C480.96 98.6458 480.549 98.5773 480.169 98.4196C479.789 98.2619 479.45 98.0192 479.179 97.7101C478.908 97.4011 478.711 97.0339 478.603 96.6369C478.496 96.2398 478.481 95.8235 478.56 95.4198ZM481.5 97.6098C482.082 97.5692 482.633 97.3293 483.059 96.9305C483.485 96.5316 483.761 95.9981 483.84 95.4198C483.898 95.1592 483.897 94.8891 483.838 94.6289C483.779 94.3686 483.663 94.1246 483.499 93.9144C483.334 93.7041 483.125 93.5328 482.887 93.4128C482.649 93.2927 482.387 93.2268 482.12 93.2198C481.537 93.2612 480.987 93.5029 480.562 93.9039C480.138 94.3049 479.865 94.8405 479.79 95.4198C479.732 95.6791 479.733 95.9479 479.791 96.2069C479.85 96.466 479.965 96.7089 480.128 96.9182C480.292 97.1275 480.5 97.2981 480.737 97.4177C480.974 97.5372 481.235 97.6029 481.5 97.6098Z" fill="#606060"/>
<path d="M486.13 100L486.85 99.2601C487.093 99.5491 487.401 99.7773 487.748 99.9266C488.095 100.076 488.473 100.142 488.85 100.12C489.452 100.185 490.056 100.013 490.532 99.6391C491.008 99.2655 491.32 98.7203 491.4 98.1201L491.5 97.4001C491.195 97.7207 490.827 97.975 490.419 98.1471C490.011 98.3191 489.572 98.4052 489.13 98.4001C488.732 98.4261 488.334 98.3603 487.965 98.2078C487.597 98.0552 487.269 97.8201 487.006 97.5204C486.743 97.2208 486.553 96.8647 486.449 96.4797C486.346 96.0947 486.332 95.6911 486.41 95.3001C486.535 94.4359 486.966 93.6454 487.625 93.0727C488.284 92.4999 489.127 92.1831 490 92.1801C490.403 92.1557 490.806 92.2348 491.17 92.4098C491.534 92.5848 491.847 92.85 492.08 93.1801L492.22 92.2901H493.45L492.64 98.0501C492.34 100.14 490.77 101.05 488.81 101.05C488.313 101.092 487.812 101.019 487.348 100.837C486.883 100.655 486.466 100.369 486.13 100ZM489.41 97.4101C489.993 97.3991 490.553 97.1806 490.989 96.7938C491.425 96.4071 491.709 95.8775 491.79 95.3001C491.849 95.0397 491.847 94.769 491.784 94.5094C491.721 94.2499 491.598 94.0087 491.425 93.8049C491.252 93.6011 491.035 93.4403 490.789 93.3354C490.543 93.2304 490.277 93.1841 490.01 93.2001C489.43 93.2111 488.872 93.4286 488.438 93.8134C488.004 94.1983 487.721 94.7254 487.64 95.3001C487.58 95.5613 487.58 95.8329 487.642 96.0938C487.704 96.3546 487.826 96.5976 487.997 96.8038C488.168 97.01 488.385 97.1738 488.63 97.2824C488.875 97.3911 489.142 97.4416 489.41 97.4301V97.4101Z" fill="#606060"/>
<path d="M493.83 100.55L494.35 99.7501C494.661 99.9959 495.044 100.133 495.44 100.14C495.782 100.12 496.111 100.002 496.388 99.8001C496.665 99.5979 496.877 99.3201 497 99.0001L497.27 98.4701L494.86 92.3101H496.22L498.05 97.0201L500.55 92.3101H501.88L498.03 99.3801C497.791 99.8815 497.418 100.307 496.952 100.609C496.486 100.911 495.945 101.077 495.39 101.09C494.822 101.106 494.267 100.914 493.83 100.55Z" fill="#606060"/>
<path d="M501.38 97.8002C501.425 97.5691 501.549 97.3611 501.732 97.213C501.915 97.0648 502.144 96.9859 502.38 96.9902C502.484 96.9865 502.588 97.0055 502.684 97.0459C502.78 97.0862 502.867 97.1471 502.937 97.2241C503.007 97.3012 503.06 97.3926 503.092 97.4921C503.123 97.5915 503.133 97.6967 503.12 97.8002C503.077 98.0332 502.953 98.2434 502.77 98.3936C502.587 98.5438 502.357 98.6241 502.12 98.6202C502.014 98.626 501.908 98.608 501.81 98.5677C501.713 98.5273 501.625 98.4656 501.554 98.3869C501.483 98.3083 501.431 98.2148 501.4 98.1133C501.37 98.0118 501.363 97.9048 501.38 97.8002Z" fill="#606060"/>
</g>
<defs>
<clipPath id="clip0_2050_410">
<rect width="524" height="102" fill="white"/>
</clipPath>
</defs>
</svg>
